<?xml version="1.0" encoding="UTF-8" standalone="no"?>
<!-- Created with Inkscape (http://www.inkscape.org/) -->

<svg
   xmlns:dc="http://purl.org/dc/elements/1.1/"
   xmlns:cc="http://creativecommons.org/ns#"
   xmlns:rdf="http://www.w3.org/1999/02/22-rdf-syntax-ns#"
   xmlns:svg="http://www.w3.org/2000/svg"
   xmlns="http://www.w3.org/2000/svg"
   xmlns:sodipodi="http://sodipodi.sourceforge.net/DTD/sodipodi-0.dtd"
   xmlns:inkscape="http://www.inkscape.org/namespaces/inkscape"
   width="22.319815mm"
   height="19.968678mm"
   viewBox="0 0 22.319815 19.968677"
   version="1.1"
   id="svg4541"
   inkscape:version="0.92.3 (2405546, 2018-03-11)"
   sodipodi:docname="us_route.svg">
  <defs
     id="defs4535" />
  <sodipodi:namedview
     id="base"
     pagecolor="#ffffff"
     bordercolor="#666666"
     borderopacity="1.0"
     inkscape:pageopacity="0.0"
     inkscape:pageshadow="2"
     inkscape:zoom="0.35"
     inkscape:cx="-146.39225"
     inkscape:cy="-303.69248"
     inkscape:document-units="mm"
     inkscape:current-layer="layer1"
     showgrid="false"
     inkscape:window-width="1440"
     inkscape:window-height="850"
     inkscape:window-x="0"
     inkscape:window-y="0"
     inkscape:window-maximized="1" />
  <metadata
     id="metadata4538">
    <rdf:RDF>
      <cc:Work
         rdf:about="">
        <dc:format>image/svg+xml</dc:format>
        <dc:type
           rdf:resource="http://purl.org/dc/dcmitype/StillImage" />
        <dc:title />
      </cc:Work>
    </rdf:RDF>
  </metadata>
  <g
     inkscape:label="Layer 1"
     inkscape:groupmode="layer"
     id="layer1"
     transform="translate(-1.3133072,-51.536495)">
    <path
       d="M 12.473214,61.520833"
       id="path7"
       inkscape:connector-curvature="0"
       style="overflow:visible;stroke-width:0.0351859" />
    <path
       d="m 12.473214,51.869404 c 0.87659,0.668125 2.013143,1.071366 3.254973,1.071366 1.241831,0 2.378382,-0.403338 3.254973,-1.071464 l 4.277965,3.82733 c -0.787225,1.001131 -1.249459,2.221645 -1.249459,3.538654 0,0.94731 0.239073,1.844601 0.666252,2.646273 0.369091,0.693086 0.583207,1.482863 0.583207,2.30176 0,2.94096 -2.664719,5.324982 -5.951951,5.324982 h -0.934206 c -1.575211,0 -2.981025,0.648817 -3.901754,1.664055 -0.920747,-1.015238 -2.326542,-1.664055 -3.9017534,-1.664055 H 7.6372362 c -3.2872137,0 -5.9519502,-2.384022 -5.9519502,-5.324982 0,-0.818897 0.2141343,-1.608674 0.5832431,-2.30176 0.4271426,-0.801672 0.6662523,-1.698963 0.6662523,-2.646273 0,-1.317009 -0.4622716,-2.537523 -1.2494773,-3.538654 l 4.2779643,-3.82733 c 0.8765902,0.668126 2.0131246,1.071464 3.2549731,1.071464 1.2418295,0 2.3783825,-0.403241 3.2549725,-1.071366 z"
       id="path11"
       style="overflow:visible;fill:#ffffff;fill-opacity:1;fill-rule:evenodd;stroke-width:0.0351859"
       inkscape:connector-curvature="0" />
    <g
       style="overflow:visible"
       id="g3886"
       transform="matrix(0.03719969,0,0,0.03328113,1.3133072,51.536495)">
      <path
         d="M 0,50 C 0,22.385742 22.385254,0 50,0 h 500 c 27.61426,0 50,22.385742 50,50 v 500 c 0,27.61523 -22.38574,50 -50,50 H 50 C 22.385254,600 0,577.61523 0,550 Z"
         id="path5"
         inkscape:connector-curvature="0" />
      <path
         d="m 300,10.00293 c 23.56445,20.075195 54.11719,32.191406 87.5,32.191406 33.38281,0 63.93555,-12.119141 87.5,-32.194336 l 115,115 c -21.16211,30.08105 -33.58789,66.75391 -33.58789,106.32617 0,28.46387 6.42676,55.42481 17.91016,79.5127 C 584.24414,331.66406 590,355.39453 590,380 590,468.36719 518.36719,540 430,540 H 404.88672 C 362.54199,540 324.75098,559.49512 300,590 275.24854,559.49512 237.45801,540 195.11328,540 H 169.99951 C 81.632813,540 9.9995117,468.36719 9.9995117,380 c 0,-24.60547 5.7563473,-48.33594 15.6787113,-69.16113 11.482422,-24.08789 17.910156,-51.04883 17.910156,-79.5127 C 43.588379,191.75391 31.161621,155.08105 10,125 L 125,10 c 23.56445,20.075195 54.1167,32.194336 87.5,32.194336 33.38281,0 63.93555,-12.116211 87.5,-32.191406 z"
         id="path13"
         style="fill:#ffffff;fill-opacity:1;fill-rule:evenodd;stroke:#000000;stroke-linecap:round;stroke-linejoin:round;stroke-miterlimit:3.863693"
         inkscape:connector-curvature="0" />
    </g>
  </g>
</svg>
